<svg width="24" height="24" viewBox="0 0 24 24" xmlns="http://www.w3.org/2000/svg">
<rect x="6" y="6" width="12" height="12" fill="#A29292" rx="1"/>
<rect x="7.5" y="7.5" width="9" height="9" fill="#101010" rx="0.5"/>
<rect x="8" y="3" width="1" height="3" fill="#A29292"/>
<rect x="8" y="18" width="1" height="3" fill="#A29292"/>
<rect x="11" y="3" width="1" height="3" fill="#A29292"/>
<rect x="11" y="18" width="1" height="3" fill="#A29292"/>
<rect x="14" y="3" width="1" height="3" fill="#A29292"/>
<rect x="14" y="18" width="1" height="3" fill="#A29292"/>
<rect x="3" y="8" width="3" height="1" fill="#A29292"/>
<rect x="18" y="8" width="3" height="1" fill="#A29292"/>
<rect x="3" y="11" width="3" height="1" fill="#A29292"/>
<rect x="18" y="11" width="3" height="1" fill="#A29292"/>
<rect x="3" y="14" width="3" height="1" fill="#A29292"/>
<rect x="18" y="14" width="3" height="1" fill="#A29292"/>
<rect x="12.0" y="12.0" width="0.0" height="0.0" fill="#A6A6A6"/>
</svg>