<svg width="24" height="24" viewBox="0 0 24 24" xmlns="http://www.w3.org/2000/svg">
<rect x="6" y="6" width="12" height="12" fill="#D0E0DE" rx="1"/>
<rect x="7.5" y="7.5" width="9" height="9" fill="#121417" rx="0.5"/>
<rect x="8" y="3" width="1" height="3" fill="#D0E0DE"/>
<rect x="8" y="18" width="1" height="3" fill="#D0E0DE"/>
<rect x="11" y="3" width="1" height="3" fill="#D0E0DE"/>
<rect x="11" y="18" width="1" height="3" fill="#D0E0DE"/>
<rect x="14" y="3" width="1" height="3" fill="#D0E0DE"/>
<rect x="14" y="18" width="1" height="3" fill="#D0E0DE"/>
<rect x="3" y="8" width="3" height="1" fill="#D0E0DE"/>
<rect x="18" y="8" width="3" height="1" fill="#D0E0DE"/>
<rect x="3" y="11" width="3" height="1" fill="#D0E0DE"/>
<rect x="18" y="11" width="3" height="1" fill="#D0E0DE"/>
<rect x="3" y="14" width="3" height="1" fill="#D0E0DE"/>
<rect x="18" y="14" width="3" height="1" fill="#D0E0DE"/>
<rect x="10.0" y="10.0" width="4.0" height="4.0" fill="#49896E"/>
</svg>